<svg xmlns="http://www.w3.org/2000/svg" xmlns:xlink="http://www.w3.org/1999/xlink" version="1.1" width="1000" height="1000" viewBox="0 0 1000 1000" xml:space="preserve">
<desc fill="#000000">Created with Fabric.js 3.5.0</desc>
<defs fill="#000000">
</defs>
<rect x="0" y="0" width="100%" height="100%" fill="#fff"/>
<g transform="matrix(10.6826 0 0 10.6826 499.9993 499.9991)" id="415573">
<path style="stroke: #3f51b5; stroke-width: 3; stroke-dasharray: none; stroke-linecap: round; stroke-dashoffset: 0; stroke-linejoin: round; stroke-miterlimit: 4; is-custom-font: none; font-file-url: none; fill: none; fill-rule: nonzero; opacity: 1;" vector-effect="non-scaling-stroke" transform=" translate(-49.95, -50.05)" d="M 14.1 7.5 l 8.1 0 v 14.7 c 0 0.6 0 1.2 0.1 1.7 c -0.1 -0.6 -0.1 -1.2 -0.1 -1.7 V 7.5 c 0 0 63.6 0 63.6 0 h -8.1 c 0 0 0 14.7 0 14.7 c 0 7 -4.6 13.3 -11.7 17.1 c -4.2 2.3 -6.8 5.9 -6.8 9.8 v 1.9 c 0 3.9 2.5 7.6 6.8 9.8 c 7.1 3.8 11.7 10 11.7 17.1 c 0 0 0 14.7 0 14.7 h 8.1 h -8.1 H 50 h 18 V 82.3 c 0 -3.8 -2.6 -7.4 -7 -9.8 c -0.1 0 -0.1 -0.1 -0.2 -0.1 c -6.6 -3.6 -14.9 -3.6 -21.5 0 c -0.1 0 -0.1 0.1 -0.2 0.1 c -4.5 2.4 -7 6 -7 9.8 l 0 10.2 h 18 c 0 0 -18 0 -18 0 H 14.1 l 8.1 0 V 77.8 c 0 -7 4.6 -13.3 11.7 -17.1 c 4.2 -2.3 6.8 -5.9 6.8 -9.8 v -1.9 c 0 -3.9 -2.5 -7.6 -6.8 -9.8 c -6.5 -3.5 -10.9 -9 -11.6 -15.3 l 9.9 0 c 0.7 3.1 3 5.9 6.8 8 c 5.7 3 9.5 7.7 10.9 12.9 c 1.4 -5.2 5.3 -9.9 10.9 -12.9 c 3.8 -2 6.2 -4.8 6.8 -8 H 32.2" stroke-linecap="round"/>
</g>
</svg>